<?xml version="1.0" encoding="utf-8"?>
<!-- Generator: Adobe Illustrator 16.0.3, SVG Export Plug-In . SVG Version: 6.00 Build 0)  -->
<!DOCTYPE svg PUBLIC "-//W3C//DTD SVG 1.1//EN" "http://www.w3.org/Graphics/SVG/1.1/DTD/svg11.dtd">
<svg version="1.1" id="Capa_1" xmlns="http://www.w3.org/2000/svg" xmlns:xlink="http://www.w3.org/1999/xlink" x="0px" y="0px"
	 width="1700.79px" height="283.46px" viewBox="0 0 1700.79 283.46" enable-background="new 0 0 1700.79 283.46"
	 xml:space="preserve">
<g>
	<path fill="#254366" d="M288.73,14.997L179.652,266.993h-57.599L13.335,14.997H288.73z"/>
	<path fill="#254366" d="M276.852,170.155c0-58.319,44.999-99.719,106.559-99.719s106.197,41.4,106.197,99.719
		c0,58.319-44.638,99.717-106.197,99.717S276.852,228.475,276.852,170.155z M432.73,170.155c0-33.479-21.24-53.64-49.32-53.64
		s-49.679,20.161-49.679,53.64c0,33.479,21.599,53.638,49.679,53.638S432.73,203.635,432.73,170.155z"/>
	<path fill="#254366" d="M647.291,70.437v51.839c-4.681-0.36-8.281-0.721-12.6-0.721c-30.96,0-51.479,16.921-51.479,54v91.438
		h-56.16V73.316h53.64v25.56C594.37,80.155,617.41,70.437,647.291,70.437z"/>
	<path fill="#254366" d="M812.53,257.633c-11.521,8.281-28.441,12.239-45.721,12.239c-45.721,0-72.359-23.397-72.359-69.478v-79.56
		h-29.88V77.636h29.88v-47.16h56.159v47.16h48.241v43.198h-48.241v78.839c0,16.561,9,25.561,24.121,25.561
		c8.279,0,16.559-2.521,22.679-7.2L812.53,257.633z"/>
	<path fill="#254366" d="M1042.209,156.116v110.877h-56.162V164.755c0-31.32-14.4-45.72-39.238-45.72
		c-27,0-46.438,16.561-46.438,52.2v95.759h-56.163V73.316h53.641v22.679c15.121-16.559,37.801-25.559,64.08-25.559
		C1007.646,70.437,1042.209,97.076,1042.209,156.116z"/>
	<path fill="#254366" d="M1264.326,156.475v110.519h-52.559v-24.119c-10.441,17.64-30.6,26.998-59.037,26.998
		c-45.363,0-72.363-25.198-72.363-58.679c0-34.198,24.121-57.959,83.162-57.959h44.639c0-24.119-14.4-38.158-44.639-38.158
		c-20.52,0-41.762,6.839-55.799,18l-20.162-39.24c21.24-15.121,52.561-23.4,83.52-23.4
		C1230.127,70.437,1264.326,97.795,1264.326,156.475z M1208.168,205.795v-19.8h-38.521c-26.279,0-34.559,9.719-34.559,22.679
		c0,14.04,11.879,23.4,31.68,23.4C1185.488,232.074,1201.688,223.435,1208.168,205.795z"/>
	<path fill="#254366" d="M1510.201,73.316v193.677h-53.279v-23.04c-14.758,16.919-36.357,25.919-60.119,25.919
		c-48.598,0-82.797-27.358-82.797-87.117V73.316h56.158v101.159c0,32.399,14.4,46.8,39.238,46.8c25.92,0,44.641-16.561,44.641-52.2
		V73.316H1510.201z"/>
	<path fill="#254366" d="M1687.322,257.633c-11.52,8.281-28.441,12.239-45.721,12.239c-45.721,0-72.357-23.397-72.357-69.478v-79.56
		h-29.881V77.636h29.881v-47.16h56.158v47.16h48.24v43.198h-48.24v78.839c0,16.561,9,25.561,24.121,25.561
		c8.279,0,16.559-2.521,22.678-7.2L1687.322,257.633z"/>
</g>
</svg>
