<?xml version="1.0" encoding="utf-8"?>
<!-- Generator: Adobe Illustrator 16.0.3, SVG Export Plug-In . SVG Version: 6.00 Build 0)  -->
<!DOCTYPE svg PUBLIC "-//W3C//DTD SVG 1.1//EN" "http://www.w3.org/Graphics/SVG/1.1/DTD/svg11.dtd">
<svg version="1.1" id="Capa_1" xmlns="http://www.w3.org/2000/svg" xmlns:xlink="http://www.w3.org/1999/xlink" x="0px" y="0px"
	 width="1587.4px" height="566.93px" viewBox="0 0 1587.4 566.93" enable-background="new 0 0 1587.4 566.93" xml:space="preserve">
<path fill="#254366" d="M451.244,560.488c-17.959-31.109-53.112-91.993-63.71-110.349c-2.32-3.888-5.48-0.967-7.43,2.146
	c-3.609,6.847-9.362,16.811-14.09,25c-2.565,4.439-6.463,4.501-10.222,4.504c-71.678,0.043-177.258,0-201.631,0
	c-8.197,0.034-11.307-1.988-14.802-7.829c-15.452-26.766-119.415-207.2-131.63-227.996c-5.276-9.143-5.367-13.436,2.883-13.436
	c22.44,0,102.884,0,129.614,0c4.088,0,4.288-3.838,2.094-7.525c-6.023-10.133-8.859-14.657-14.751-24.858
	c-1.41-2.441-2.438-5.132,0.618-10.095c17.958-31.344,87-150.914,102.061-177.002c3.969-6.875,8.34-7.653,18.625-7.653
	c26.4,0,230.34-0.114,258.721,0c10.997,0.044,10.825,7.042,6.485,14.558c-19.65,34.041-49.17,85.167-59,102.192
	c-5.943,10.291-4.081,10.291,7.633,10.291c13.638,0,5.931,0,20.46,0c10.119,0,9.564,1.71,14.34,9.673
	c18.441,31.94,85.149,147.485,99.422,172.207c4.149,7.185,4.239,9.146-1.944,19.858c-29.874,51.743-109.435,189.547-132.013,228.648
	C459.174,569.41,455.386,567.666,451.244,560.488z M279.23,68.756c-7.772,0-8.87,1.528-12.433,7.703
	c-8.406,14.561-57.307,99.258-65.996,114.392c-2.213,3.854-1.195,7.35,1.245,11.576c9.252,16.025,61.758,106.967,82.637,142.44
	c3.389,5.636,2.344,9.308-5.529,9.308c-17.747,0-39.919,0-56.685,0c-4.99,0.051-6.873-1.932-9.375-6.581
	c-7.453-13.845-18.588-32.171-26.443-45.8c-2.536-4.402-4.061-5.905-10.051-5.905c-19.8,0-38.146,0-58.41,0
	c-8.551-0.069-7.059,2.459-3.227,9.095c19.323,33.468,42.795,74.122,61.298,106.171c4.539,7.861,3.907,7.275,10.899,7.275
	c21.45,0,105.6,0,129.691,0c6.6,0,10.926-1.637,14.773-8.302c22.6-39.144,66.042-114.358,82.224-143.009
	c4.778-7.94,5.331-5.888,9.668,1.918c9.346,16.818,16.613,31.166,27.189,47.232c4.435,6.736,2.838,8.819-0.957,15.392
	c-6.872,11.904-16.125,27.931-25.249,43.732c-3.782,6.554-3.622,5.777,0.316,12.602c8.303,14.377,19.656,34.044,28.755,49.803
	c3.574,6.188,5.012,5.924,7.327,1.913c12.451-21.575,46.146-79.927,64.505-111.729c2.23-3.863,1.961-7.684-0.181-11.157
	c-15.938-27.606-44.16-76.491-66.393-115.002c-2.973-4.953-3.218-6.278-9.316-6.027c-24.979-0.06-131.999,0-169.622,0
	c-6.48,0-7.813,0.028-3.55-7.354c4.984-8.636,19.524-33.819,27.154-47.033c5.154-9.248,7.856-8.973,22.376-8.973
	c18.042,0,28.272,0,43.561,0c5.449,0,6.09-0.262,11.558-9.306c8.003-13.238,19.256-33.683,27.432-46.89
	c4.829-7.803-0.915-7.485-9.067-7.485C375.15,68.756,301.669,68.756,279.23,68.756z"/>
<g>
	<path fill="#254366" d="M771.865,198.148l-63.326,146.298h-33.439l-63.117-146.298H771.865z"/>
	<path fill="#254366" d="M764.969,288.227c0-33.857,26.125-57.893,61.862-57.893c35.74,0,61.655,24.035,61.655,57.893
		s-25.915,57.892-61.655,57.892C791.093,346.118,764.969,322.084,764.969,288.227z M855.464,288.227
		c0-19.437-12.329-31.141-28.633-31.141c-16.302,0-28.841,11.704-28.841,31.141c0,19.437,12.539,31.139,28.841,31.139
		C843.135,319.365,855.464,307.663,855.464,288.227z"/>
	<path fill="#254366" d="M980.029,230.334v30.096c-2.719-0.209-4.809-0.418-7.314-0.418c-17.976,0-29.887,9.824-29.887,31.35v53.085
		h-32.605V232.005h31.143v14.839C949.307,235.976,962.681,230.334,980.029,230.334z"/>
	<path fill="#254366" d="M1075.96,339.012c-6.689,4.808-16.512,7.106-26.544,7.106c-26.543,0-42.009-13.584-42.009-40.336v-46.189
		h-17.347v-25.079h17.347v-27.379h32.604v27.379h28.007v25.079h-28.007v45.771c0,9.614,5.226,14.839,14.003,14.839
		c4.807,0,9.613-1.463,13.167-4.179L1075.96,339.012z"/>
	<path fill="#254366" d="M1209.301,280.076v64.371h-32.604v-59.354c0-18.184-8.36-26.544-22.78-26.544
		c-15.675,0-26.96,9.614-26.96,30.305v55.594h-32.605V232.005h31.142v13.167c8.779-9.613,21.945-14.838,37.202-14.838
		C1189.236,230.334,1209.301,245.799,1209.301,280.076z"/>
	<path fill="#254366" d="M1338.252,280.283v64.163h-30.513v-14.003c-6.062,10.24-17.766,15.675-34.275,15.675
		c-26.334,0-42.01-14.63-42.01-34.066c0-19.854,14.004-33.649,48.28-33.649h25.915c0-14.002-8.36-22.153-25.915-22.153
		c-11.914,0-24.245,3.971-32.396,10.45l-11.705-22.781c12.332-8.779,30.515-13.585,48.489-13.585
		C1318.397,230.334,1338.252,246.217,1338.252,280.283z M1305.649,308.917v-11.495h-22.363c-15.257,0-20.063,5.643-20.063,13.166
		c0,8.151,6.896,13.585,18.392,13.585C1292.482,324.173,1301.887,319.158,1305.649,308.917z"/>
	<path fill="#254366" d="M1480.996,232.005v112.441h-30.932V331.07c-8.567,9.822-21.107,15.048-34.903,15.048
		c-28.212,0-48.067-15.884-48.067-50.577v-63.536h32.604v58.729c0,18.81,8.359,27.169,22.779,27.169
		c15.049,0,25.917-9.614,25.917-30.305v-55.593H1480.996z"/>
	<path fill="#254366" d="M1583.825,339.012c-6.688,4.808-16.512,7.106-26.543,7.106c-26.544,0-42.009-13.584-42.009-40.336v-46.189
		h-17.347v-25.079h17.347v-27.379h32.604v27.379h28.006v25.079h-28.006v45.771c0,9.614,5.225,14.839,14.003,14.839
		c4.807,0,9.613-1.463,13.167-4.179L1583.825,339.012z"/>
</g>
</svg>
