<?xml version="1.0" encoding="utf-8"?>
<!-- Generator: Adobe Illustrator 16.0.3, SVG Export Plug-In . SVG Version: 6.00 Build 0)  -->
<!DOCTYPE svg PUBLIC "-//W3C//DTD SVG 1.1//EN" "http://www.w3.org/Graphics/SVG/1.1/DTD/svg11.dtd">
<svg version="1.1" id="Capa_1" xmlns="http://www.w3.org/2000/svg" xmlns:xlink="http://www.w3.org/1999/xlink" x="0px" y="0px"
	 width="1700.79px" height="1700.79px" viewBox="0 0 1700.79 1700.79" enable-background="new 0 0 1700.79 1700.79"
	 xml:space="preserve">
<g>
	<path fill="#254366" d="M288.729,1405.997l-109.078,251.997h-57.599L13.335,1405.997H288.729z"/>
	<path fill="#254366" d="M276.852,1561.154c0-58.318,44.999-99.719,106.56-99.719c61.56,0,106.196,41.4,106.196,99.719
		c0,58.32-44.638,99.719-106.196,99.719C321.852,1660.873,276.852,1619.475,276.852,1561.154z M432.729,1561.154
		c0-33.479-21.24-53.639-49.319-53.639c-28.08,0-49.68,20.16-49.68,53.639c0,33.48,21.6,53.639,49.68,53.639
		C411.489,1614.793,432.729,1594.635,432.729,1561.154z"/>
	<path fill="#254366" d="M647.291,1461.438v51.838c-4.682-0.359-8.281-0.721-12.601-0.721c-30.96,0-51.479,16.922-51.479,54v91.439
		h-56.16v-193.678h53.64v25.56C594.369,1471.154,617.409,1461.438,647.291,1461.438z"/>
	<path fill="#254366" d="M812.529,1648.633c-11.521,8.281-28.44,12.24-45.721,12.24c-45.721,0-72.359-23.398-72.359-69.479v-79.561
		h-29.88v-43.197h29.88v-47.16h56.159v47.16h48.241v43.197h-48.241v78.84c0,16.561,9,25.561,24.121,25.561
		c8.279,0,16.56-2.521,22.679-7.199L812.529,1648.633z"/>
	<path fill="#254366" d="M1042.209,1547.117v110.877h-56.162v-102.238c0-31.32-14.4-45.721-39.238-45.721
		c-27,0-46.438,16.561-46.438,52.199v95.76h-56.164v-193.678h53.642v22.679c15.121-16.56,37.801-25.56,64.08-25.56
		C1007.646,1461.438,1042.209,1488.076,1042.209,1547.117z"/>
	<path fill="#254366" d="M1264.325,1547.475v110.52h-52.559v-24.119c-10.441,17.641-30.6,26.998-59.037,26.998
		c-45.363,0-72.363-25.197-72.363-58.68c0-34.197,24.121-57.959,83.162-57.959h44.64c0-24.118-14.4-38.157-44.64-38.157
		c-20.52,0-41.762,6.839-55.799,18l-20.162-39.24c21.24-15.121,52.562-23.399,83.521-23.399
		C1230.127,1461.438,1264.325,1488.795,1264.325,1547.475z M1208.168,1596.795v-19.799h-38.521
		c-26.279,0-34.559,9.719-34.559,22.678c0,14.041,11.879,23.4,31.68,23.4C1185.487,1623.074,1201.688,1614.436,1208.168,1596.795z"
		/>
	<path fill="#254366" d="M1510.2,1464.316v193.678h-53.278v-23.041c-14.759,16.92-36.357,25.92-60.119,25.92
		c-48.599,0-82.797-27.359-82.797-87.117v-109.439h56.157v101.158c0,32.4,14.4,46.801,39.238,46.801
		c25.92,0,44.642-16.561,44.642-52.199v-95.76H1510.2z"/>
	<path fill="#254366" d="M1687.321,1648.633c-11.52,8.281-28.44,12.24-45.721,12.24c-45.721,0-72.357-23.398-72.357-69.479v-79.561
		h-29.881v-43.197h29.881v-47.16h56.158v47.16h48.24v43.197h-48.24v78.84c0,16.561,9,25.561,24.121,25.561
		c8.279,0,16.559-2.521,22.678-7.199L1687.321,1648.633z"/>
</g>
<path fill="#254366" d="M1203.819,1350.822c-42.448-73.534-125.536-217.438-150.587-260.825c-5.484-9.189-12.957-2.285-17.563,5.07
	c-8.531,16.184-22.131,39.736-33.305,59.094c-6.063,10.491-15.278,10.639-24.162,10.646c-169.419,0.102-418.971,0-476.582,0
	c-19.375,0.079-26.726-4.702-34.986-18.507c-36.522-63.267-282.252-489.748-311.126-538.898
	c-12.472-21.61-12.685-31.756,6.815-31.756c53.041,0,243.181,0,306.361,0c9.664,0,10.136-9.072,4.951-17.789
	c-14.237-23.951-20.94-34.643-34.867-58.756c-3.333-5.769-5.761-12.129,1.46-23.86c42.446-74.087,205.636-356.708,241.234-418.369
	c9.382-16.25,19.713-18.088,44.022-18.088c62.4,0,544.443-0.269,611.522,0c25.995,0.104,25.587,16.644,15.331,34.409
	c-46.447,80.458-116.221,201.302-139.458,241.544c-14.043,24.324-9.646,24.324,18.045,24.324c32.233,0,14.016,0,48.359,0
	c23.918,0,22.607,4.042,33.894,22.864c43.589,75.496,201.265,348.601,234.998,407.032c9.812,16.983,10.021,21.617-4.593,46.939
	c-70.614,122.302-258.667,448.02-312.03,540.441C1222.565,1371.911,1213.607,1367.785,1203.819,1350.822z M797.242,188.546
	c-18.373,0-20.965,3.613-29.387,18.205c-19.871,34.417-135.454,234.612-155.99,270.382c-5.233,9.11-2.824,17.373,2.943,27.361
	c21.869,37.875,145.973,252.832,195.325,336.675c8.011,13.319,5.541,21.998-13.071,21.998c-41.945,0-94.354,0-133.981,0
	c-11.794,0.124-16.245-4.565-22.158-15.555c-17.616-32.723-43.936-76.037-62.502-108.25c-5.995-10.407-9.6-13.96-23.758-13.96
	c-46.8,0-90.165,0-138.062,0c-20.211-0.165-16.684,5.813-7.625,21.498c45.67,79.103,101.151,175.195,144.884,250.948
	c10.728,18.579,9.234,17.195,25.761,17.195c50.7,0,249.6,0,306.544,0c15.6,0,25.824-3.867,34.917-19.622
	c53.419-92.521,156.099-270.301,194.348-338.021c11.293-18.769,12.596-13.917,22.852,4.535
	c22.09,39.751,39.264,73.664,64.266,111.637c10.481,15.923,6.708,20.849-2.262,36.38c-16.245,28.141-38.117,66.021-59.681,103.368
	c-8.938,15.49-8.563,13.655,0.749,29.785c19.621,33.985,46.459,80.469,67.963,117.719c8.447,14.625,11.85,13.998,17.318,4.522
	c29.434-50.997,109.073-188.919,152.469-264.086c5.269-9.133,4.634-18.164-0.427-26.373
	c-37.672-65.254-104.381-180.796-156.932-271.822c-7.025-11.708-7.604-14.838-22.017-14.247c-59.043-0.14-312,0-400.925,0
	c-15.316,0-18.464,0.068-8.389-17.382c11.781-20.414,46.147-79.935,64.183-111.17c12.183-21.856,18.57-21.206,52.886-21.206
	c42.646,0,66.826,0,102.964,0c12.881,0,14.395-0.62,27.318-21.996c18.916-31.289,45.515-79.615,64.84-110.83
	c11.413-18.444-2.163-17.692-21.433-17.692C1023.962,188.546,850.28,188.546,797.242,188.546z"/>
</svg>
