<?xml version="1.0" encoding="utf-8"?>
<!-- Generator: Adobe Illustrator 16.0.3, SVG Export Plug-In . SVG Version: 6.00 Build 0)  -->
<!DOCTYPE svg PUBLIC "-//W3C//DTD SVG 1.1//EN" "http://www.w3.org/Graphics/SVG/1.1/DTD/svg11.dtd">
<svg version="1.1" id="Capa_1" xmlns="http://www.w3.org/2000/svg" xmlns:xlink="http://www.w3.org/1999/xlink" x="0px" y="0px"
	 width="1332.28px" height="283.46px" viewBox="0 0 1332.28 283.46" enable-background="new 0 0 1332.28 283.46"
	 xml:space="preserve">
<path fill="#254366" d="M175.554,242.835c-6.789-11.759-20.076-34.773-24.082-41.712c-0.877-1.47-2.072-0.365-2.809,0.811
	c-1.364,2.59-3.539,6.354-5.326,9.45c-0.969,1.678-2.443,1.701-3.864,1.703c-27.094,0.016-67.003,0-76.216,0
	c-3.099,0.013-4.275-0.752-5.595-2.96c-5.841-10.117-45.139-78.322-49.756-86.183c-1.995-3.456-2.029-5.078,1.09-5.078
	c8.482,0,38.89,0,48.994,0c1.546,0,1.621-1.451,0.792-2.845c-2.277-3.831-3.348-5.541-5.576-9.397
	c-0.533-0.923-0.921-1.939,0.234-3.816c6.788-11.848,32.885-57.045,38.579-66.907c1.5-2.599,3.153-2.893,7.04-2.893
	c9.979,0,87.069-0.043,97.797,0c4.157,0.017,4.091,2.662,2.451,5.503c-7.428,12.867-18.586,32.192-22.302,38.628
	c-2.247,3.891-1.543,3.891,2.885,3.891c5.156,0,2.242,0,7.734,0c3.825,0,3.615,0.646,5.42,3.656
	c6.971,12.073,32.186,55.749,37.581,65.094c1.569,2.716,1.602,3.458-0.734,7.506c-11.292,19.56-41.367,71.649-49.901,86.429
	C178.552,246.206,177.12,245.546,175.554,242.835z M110.533,56.959c-2.938,0-3.352,0.578-4.699,2.912
	c-3.178,5.504-21.663,37.52-24.946,43.24c-0.837,1.457-0.452,2.779,0.47,4.375c3.497,6.058,23.345,40.434,31.237,53.843
	c1.281,2.13,0.886,3.518-2.09,3.518c-6.708,0-15.089,0-21.427,0c-1.886,0.02-2.598-0.729-3.544-2.487
	c-2.817-5.233-7.026-12.161-9.996-17.313c-0.958-1.664-1.535-2.233-3.799-2.233c-7.484,0-14.418,0-22.078,0
	c-3.233-0.025-2.668,0.93-1.22,3.438c7.304,12.651,16.176,28.02,23.17,40.132c1.716,2.974,1.478,2.752,4.12,2.752
	c8.108,0,39.917,0,49.023,0c2.496,0,4.13-0.618,5.584-3.139c8.542-14.796,24.963-43.227,31.081-54.057
	c1.806-3.002,2.015-2.226,3.655,0.726c3.533,6.357,6.279,11.78,10.277,17.853c1.677,2.546,1.073,3.334-0.362,5.817
	c-2.598,4.501-6.095,10.558-9.544,16.531c-1.43,2.478-1.369,2.185,0.119,4.763c3.139,5.436,7.43,12.87,10.87,18.826
	c1.35,2.339,1.894,2.24,2.769,0.724c4.707-8.155,17.444-30.212,24.383-42.233c0.842-1.461,0.741-2.904-0.068-4.218
	c-6.024-10.435-16.692-28.914-25.097-43.471c-1.123-1.872-1.217-2.373-3.521-2.278c-9.442-0.022-49.895,0-64.117,0
	c-2.45,0-2.953,0.011-1.342-2.78c1.884-3.265,7.38-12.784,10.264-17.779c1.949-3.496,2.97-3.391,8.459-3.391
	c6.819,0,10.687,0,16.466,0c2.06,0,2.302-0.1,4.368-3.519c3.025-5.003,7.279-12.732,10.37-17.724c1.826-2.949-0.346-2.83-3.428-2.83
	C146.791,56.959,119.015,56.959,110.533,56.959z"/>
<g>
	<path fill="#254366" d="M432.124,55.743l-69.659,160.928h-36.783L256.253,55.743H432.124z"/>
	<path fill="#254366" d="M424.538,154.829c0-37.243,28.737-63.682,68.048-63.682c39.314,0,67.821,26.438,67.821,63.682
		s-28.506,63.681-67.821,63.681C453.275,218.51,424.538,192.072,424.538,154.829z M524.083,154.829
		c0-21.381-13.562-34.255-31.496-34.255c-17.932,0-31.725,12.875-31.725,34.255c0,21.38,13.793,34.253,31.725,34.253
		C510.521,189.082,524.083,176.209,524.083,154.829z"/>
	<path fill="#254366" d="M661.104,91.147v33.105c-2.991-0.23-5.29-0.46-8.046-0.46c-19.772,0-32.876,10.806-32.876,34.485v58.394
		h-35.865V92.986h34.256v16.323C627.31,97.354,642.021,91.147,661.104,91.147z"/>
	<path fill="#254366" d="M766.629,210.692c-7.358,5.289-18.163,7.817-29.199,7.817c-29.197,0-46.209-14.942-46.209-44.369v-50.809
		h-19.082V95.745h19.082V65.628h35.864v30.117h30.807v27.587h-30.807v50.348c0,10.575,5.747,16.322,15.402,16.322
		c5.287,0,10.574-1.608,14.484-4.597L766.629,210.692z"/>
	<path fill="#254366" d="M913.303,145.863v70.808h-35.864v-65.29c0-20.002-9.197-29.198-25.059-29.198
		c-17.241,0-29.655,10.576-29.655,33.335v61.153h-35.866V92.986h34.255v14.483c9.657-10.574,24.14-16.321,40.924-16.321
		C891.231,91.147,913.303,108.159,913.303,145.863z"/>
	<path fill="#254366" d="M1055.149,146.092v70.579h-33.563v-15.403c-6.669,11.265-19.542,17.242-37.703,17.242
		c-28.967,0-46.21-16.093-46.21-37.473c0-21.84,15.404-37.014,53.106-37.014h28.508c0-15.403-9.197-24.369-28.508-24.369
		c-13.105,0-26.668,4.368-35.634,11.495l-12.875-25.059c13.564-9.657,33.564-14.943,53.337-14.943
		C1033.311,91.147,1055.149,108.618,1055.149,146.092z M1019.287,177.589v-12.645h-24.6c-16.783,0-22.07,6.206-22.07,14.482
		c0,8.967,7.586,14.943,20.231,14.943C1004.803,194.37,1015.147,188.854,1019.287,177.589z"/>
	<path fill="#254366" d="M1212.168,92.986v123.685h-34.025v-14.714c-9.423,10.805-23.218,16.553-38.393,16.553
		c-31.034,0-52.875-17.472-52.875-55.635V92.986h35.864v64.602c0,20.69,9.195,29.886,25.057,29.886
		c16.554,0,28.51-10.576,28.51-33.335V92.986H1212.168z"/>
	<path fill="#254366" d="M1325.28,210.692c-7.358,5.289-18.162,7.817-29.197,7.817c-29.199,0-46.21-14.942-46.21-44.369v-50.809
		h-19.081V95.745h19.081V65.628h35.863v30.117h30.807v27.587h-30.807v50.348c0,10.575,5.747,16.322,15.404,16.322
		c5.287,0,10.575-1.608,14.482-4.597L1325.28,210.692z"/>
</g>
</svg>
