<?xml version="1.0" encoding="utf-8"?>
<!-- Generator: Adobe Illustrator 16.0.3, SVG Export Plug-In . SVG Version: 6.00 Build 0)  -->
<!DOCTYPE svg PUBLIC "-//W3C//DTD SVG 1.1//EN" "http://www.w3.org/Graphics/SVG/1.1/DTD/svg11.dtd">
<svg version="1.1" id="Capa_1" xmlns="http://www.w3.org/2000/svg" xmlns:xlink="http://www.w3.org/1999/xlink" x="0px" y="0px"
	 width="566.93px" height="566.93px" viewBox="0 0 566.93 566.93" enable-background="new 0 0 566.93 566.93" xml:space="preserve">
<path fill-rule="evenodd" clip-rule="evenodd" fill="#254366" d="M419.672,531.766c-16.326-28.282-48.283-83.63-57.918-100.317
	c-2.109-3.534-4.983-0.879-6.755,1.95c-3.281,6.225-8.511,15.283-12.809,22.728c-2.332,4.036-5.876,4.092-9.293,4.095
	c-65.161,0.039-161.143,0-183.301,0c-7.452,0.03-10.279-1.808-13.456-7.118C122.093,428.771,27.581,264.74,16.476,245.835
	c-4.797-8.311-4.879-12.214,2.621-12.214c20.4,0,93.531,0,117.831,0c3.717,0,3.898-3.489,1.904-6.841
	c-5.475-9.212-8.053-13.325-13.41-22.599c-1.282-2.219-2.216-4.665,0.562-9.177c16.325-28.495,79.09-137.195,92.782-160.911
	c3.608-6.25,7.582-6.957,16.932-6.957c24,0,209.401-0.104,235.201,0c9.998,0.04,9.841,6.401,5.896,13.234
	c-17.864,30.946-44.7,77.424-53.637,92.902c-5.402,9.355-3.71,9.355,6.94,9.355c12.398,0,5.391,0,18.6,0
	c9.199,0,8.695,1.555,13.036,8.794c16.765,29.037,77.409,134.077,90.384,156.551c3.773,6.532,3.854,8.315-1.767,18.054
	c-27.159,47.039-99.487,172.315-120.012,207.862C426.882,539.877,423.437,538.291,419.672,531.766z M263.296,84.737
	c-7.066,0-8.063,1.389-11.303,7.002c-7.642,13.237-52.097,90.235-59.996,103.993c-2.012,3.504-1.086,6.681,1.132,10.523
	c8.411,14.568,56.144,97.243,75.125,129.491c3.081,5.123,2.131,8.461-5.027,8.461c-16.133,0-36.29,0-51.531,0
	c-4.537,0.047-6.248-1.756-8.523-5.983c-6.775-12.586-16.898-29.245-24.039-41.635c-2.306-4.003-3.692-5.369-9.138-5.369
	c-18,0-34.678,0-53.1,0c-7.774-0.063-6.417,2.235-2.933,8.269c17.566,30.424,38.904,67.383,55.725,96.518
	c4.126,7.146,3.552,6.614,9.908,6.614c19.5,0,96,0,117.901,0c6,0,9.933-1.488,13.43-7.547
	c20.546-35.585,60.038-103.962,74.749-130.008c4.344-7.219,4.845-5.353,8.789,1.744c8.496,15.289,15.102,28.332,24.718,42.938
	c4.031,6.124,2.58,8.018-0.87,13.992c-6.248,10.823-14.66,25.392-22.954,39.757c-3.438,5.958-3.293,5.252,0.288,11.456
	c7.547,13.071,17.869,30.949,26.14,45.276c3.249,5.625,4.557,5.384,6.661,1.739c11.32-19.614,41.951-72.661,58.641-101.571
	c2.027-3.513,1.783-6.986-0.164-10.144c-14.489-25.097-40.146-69.537-60.358-104.547c-2.702-4.503-2.925-5.707-8.468-5.479
	c-22.709-0.054-120,0-154.202,0c-5.891,0-7.102,0.026-3.227-6.686c4.531-7.851,17.749-30.744,24.686-42.757
	c4.685-8.407,7.142-8.157,20.341-8.157c16.402,0,25.702,0,39.601,0c4.954,0,5.536-0.238,10.507-8.46
	c7.275-12.034,17.506-30.621,24.938-42.627c4.39-7.093-0.832-6.804-8.243-6.804C350.496,84.737,283.696,84.737,263.296,84.737z"/>
</svg>
